<svg height="512pt" viewBox="0 0 512.04876 512" width="512pt" xmlns="http://www.w3.org/2000/svg"><path d="m451.523438 104.046875c-1.839844 1.332031-3.074219 3.339844-3.429688 5.582031-.355469 2.238282.195312 4.53125 1.535156 6.363282 52.605469 72.730468 60.011719 168.804687 19.175782 248.734374-40.835938 79.933594-123.023438 130.234376-212.78125 130.234376-58.21875.210937-114.46875-21.058594-157.984376-59.734376h29.984376c4.714843 0 8.535156-3.820312 8.535156-8.535156 0-4.710937-3.820313-8.53125-8.535156-8.53125h-51.199219c-.386719.050782-.773438.125-1.152344.230469-.683594.050781-1.355469.1875-2.003906.398437-.667969.316407-1.296875.714844-1.859375 1.1875-.296875.160157-.582032.339844-.855469.539063l-.050781.074219c-.59375.621094-1.085938 1.324218-1.46875 2.09375-.117188.21875-.332032.40625-.433594.648437-.097656.324219-.171875.652344-.222656.988281-.265625.734376-.429688 1.5-.484375 2.277344v51.296875c0 4.710938 3.820312 8.53125 8.53125 8.53125 4.714843 0 8.535156-3.820312 8.535156-8.53125v-31.140625c46.789063 42.226563 107.636719 65.5 170.664063 65.273438 96.183593.007812 184.253906-53.894532 228.003906-139.550782 43.753906-85.65625 35.800781-188.605468-20.582032-266.527343-1.328124-1.832031-3.332031-3.0625-5.566406-3.421875-2.238281-.355469-4.523437.191406-6.355468 1.519531zm0 0"/><path d="m48.605469 406.101562c2.765625 3.816407 8.101562 4.667969 11.921875 1.902344 3.816406-2.765625 4.667968-8.101562 1.902344-11.921875-52.621094-72.726562-60.035157-168.808593-19.203126-248.746093 40.835938-79.941407 123.03125-130.25 212.796876-130.242188 58.21875-.214844 114.472656 21.054688 157.988281 59.730469h-29.988281c-4.710938 0-8.53125 3.824219-8.53125 8.535156s3.820312 8.535156 8.53125 8.535156h51.199218c.433594-.050781.855469-.136719 1.273438-.257812.636718-.050781 1.269531-.179688 1.878906-.375.683594-.3125 1.320312-.714844 1.894531-1.203125.292969-.15625.578125-.328125.851563-.519532l.050781-.078124c.59375-.617188 1.089844-1.320313 1.46875-2.089844.128906-.230469.332031-.410156.433594-.648438.097656-.332031.171875-.667968.222656-1.007812.257813-.730469.414063-1.488282.460937-2.261719v-51.292969c0-4.714844-3.820312-8.535156-8.535156-8.535156-4.710937 0-8.53125 3.820312-8.53125 8.535156v31.136719c-46.789062-42.226563-107.640625-65.5-170.667968-65.2695312-96.179688-.0117188-184.25 53.8945312-228.003907 139.5468752-43.75 85.65625-35.800781 188.605469 20.585938 266.527343zm0 0"/><path d="m264.558594 51.226562v-8.535156c0-4.710937-3.820313-8.53125-8.535156-8.53125-4.710938 0-8.53125 3.820313-8.53125 8.53125v8.535156c0 4.710938 3.820312 8.53125 8.53125 8.53125 4.714843 0 8.535156-3.820312 8.535156-8.53125zm0 0"/><path d="m256.023438 477.894531c4.714843 0 8.535156-3.824219 8.535156-8.535156v-8.535156c0-4.710938-3.820313-8.53125-8.535156-8.53125-4.710938 0-8.53125 3.820312-8.53125 8.53125v8.535156c0 4.710937 3.820312 8.535156 8.53125 8.535156zm0 0"/><path d="m220.449219 62.867188c.496093-.003907.992187-.042969 1.484375-.121094 2.230468-.390625 4.214844-1.652344 5.515625-3.507813s1.808593-4.152343 1.414062-6.382812l-1.46875-8.394531c-.816406-4.644532-5.242187-7.75-9.886719-6.933594-4.644531.8125-7.746093 5.238281-6.933593 9.882812l1.476562 8.398438c.71875 4.078125 4.257813 7.054687 8.398438 7.058594zm0 0"/><path d="m290.113281 449.304688c-2.230469.394531-4.214843 1.65625-5.511719 3.511718-1.300781 1.851563-1.808593 4.148438-1.414062 6.378906l1.464844 8.398438c.71875 4.082031 4.261718 7.054688 8.40625 7.054688.5 0 .996094-.042969 1.484375-.125 2.230469-.394532 4.210937-1.652344 5.511719-3.507813 1.300781-1.851563 1.808593-4.144531 1.417968-6.375l-1.476562-8.398437c-.390625-2.230469-1.648438-4.214844-3.503906-5.515626-1.851563-1.300781-4.148438-1.8125-6.378907-1.421874zm0 0"/><path d="m185.984375 72.105469c2.792969.003906 5.410156-1.359375 7.007813-3.652344 1.597656-2.292969 1.972656-5.21875 1.003906-7.839844l-2.917969-8.011719c-1.046875-2.867187-3.539063-4.953124-6.542969-5.480468s-6.0625.589844-8.019531 2.925781c-1.957031 2.339844-2.519531 5.542969-1.472656 8.40625l2.925781 8.011719c1.21875 3.382812 4.421875 5.636718 8.015625 5.640625zm0 0"/><path d="m320.972656 459.417969c1.042969 2.863281 3.539063 4.953125 6.542969 5.480469 3.003906.527343 6.058594-.589844 8.015625-2.929688 1.957031-2.335938 2.519531-5.539062 1.472656-8.40625l-2.925781-8.011719c-.988281-2.9375-3.496094-5.105469-6.542969-5.667969-3.050781-.558593-6.160156.578126-8.132812 2.972657-1.96875 2.390625-2.484375 5.664062-1.347656 8.550781zm0 0"/><path d="m146.234375 82.9375c1.511719 2.660156 4.335937 4.308594 7.398437 4.3125 3.0625.007812 5.894532-1.625 7.417969-4.28125 1.527344-2.65625 1.511719-5.925781-.035156-8.566406l-4.269531-7.390625c-1.511719-2.660157-4.335938-4.308594-7.398438-4.316407-3.0625-.003906-5.894531 1.628907-7.417968 4.285157-1.523438 2.65625-1.511719 5.925781.039062 8.566406zm0 0"/><path d="m354.15625 425.992188c-4.078125 2.355468-5.476562 7.574218-3.121094 11.65625l4.265625 7.390624c1.515625 2.664063 4.335938 4.308594 7.398438 4.316407 3.0625.007812 5.894531-1.628907 7.417969-4.285157 1.527343-2.652343 1.511718-5.921874-.035157-8.5625l-4.269531-7.390624c-2.355469-4.082032-7.574219-5.480469-11.65625-3.125zm0 0"/><path d="m113.414062 86.058594c-1.734374 1.453125-2.820312 3.539062-3.019531 5.792968-.199219 2.253907.507813 4.496094 1.960938 6.230469l5.488281 6.546875c1.960938 2.335938 5.015625 3.449219 8.019531 2.921875 3.003907-.527343 5.496094-2.617187 6.539063-5.484375 1.046875-2.863281.480468-6.066406-1.476563-8.402344l-5.488281-6.546874c-1.453125-1.734376-3.535156-2.820313-5.792969-3.019532-2.253906-.199218-4.496093.507813-6.230469 1.960938zm0 0"/><path d="m382.179688 406.367188c-1.734376 1.453124-2.820313 3.535156-3.019532 5.792968-.195312 2.253906.507813 4.496094 1.964844 6.230469l5.484375 6.542969c1.960937 2.339844 5.015625 3.453125 8.019531 2.925781 3.003906-.53125 5.496094-2.621094 6.539063-5.484375 1.046875-2.863281.480469-6.070312-1.476563-8.40625l-5.488281-6.542969c-1.453125-1.738281-3.535156-2.824219-5.789063-3.019531-2.257812-.199219-4.5.503906-6.234374 1.960938zm0 0"/><path d="m104.625 117.847656-6.542969-5.488281c-3.621093-3.027344-9.007812-2.550781-12.039062 1.070313-3.027344 3.621093-2.546875 9.007812 1.074219 12.035156l6.542968 5.488281c2.335938 1.957031 5.542969 2.523437 8.40625 1.476563 2.863282-1.042969 4.953125-3.535157 5.484375-6.539063.527344-3.003906-.589843-6.058594-2.925781-8.019531zm0 0"/><path d="m407.421875 394.207031 6.546875 5.484375c2.339844 1.960938 5.550781 2.519532 8.414062 1.472656 2.867188-1.046874 4.957032-3.546874 5.484376-6.554687.527343-3.003906-.59375-6.066406-2.933594-8.023437l-6.546875-5.488282c-3.609375-3.027344-8.992188-2.554687-12.023438 1.058594-3.027343 3.613281-2.554687 8.996094 1.058594 12.023438zm0 0"/><path d="m74.402344 161.015625c4.078125 2.320313 9.261718.910156 11.605468-3.152344 2.347657-4.0625.972657-9.253906-3.074218-11.628906l-7.390625-4.265625c-2.640625-1.546875-5.910157-1.5625-8.566407-.039062-2.652343 1.527343-4.289062 4.359374-4.28125 7.421874.007813 3.058594 1.652344 5.882813 4.316407 7.398438zm0 0"/><path d="m436.503906 370.082031c2.640625 1.550781 5.910156 1.5625 8.566406.039063 2.65625-1.527344 4.289063-4.355469 4.28125-7.417969-.003906-3.0625-1.652343-5.886719-4.3125-7.398437l-7.390624-4.269532c-2.640626-1.546875-5.910157-1.5625-8.566407-.035156-2.65625 1.523438-4.289062 4.355469-4.28125 7.417969.003907 3.0625 1.652344 5.882812 4.3125 7.398437zm0 0"/><path d="m47.539062 180.128906c-.777343 2.132813-.675781 4.484375.285157 6.539063.960937 2.054687 2.699219 3.640625 4.832031 4.410156l8.015625 2.917969c2.882813 1.136718 6.15625.621094 8.550781-1.347656 2.390625-1.972657 3.527344-5.085938 2.96875-8.132813s-2.730468-5.554687-5.667968-6.542969l-8.011719-2.929687c-2.128907-.785157-4.484375-.691407-6.542969.265625-2.058594.953125-3.652344 2.6875-4.429688 4.820312zm0 0"/><path d="m456.488281 337.527344c4.148438.007812 7.699219-2.964844 8.417969-7.046875.722656-4.082031-1.59375-8.09375-5.488281-9.507813l-8.015625-2.917968c-2.882813-1.136719-6.15625-.621094-8.550782 1.351562-2.390624 1.96875-3.527343 5.082031-2.96875 8.128906.558594 3.050782 2.730469 5.554688 5.667969 6.546875l8.011719 2.925781c.9375.339844 1.929688.515626 2.925781.519532zm0 0"/><path d="m37.527344 217.507812c-.394532 2.230469.117187 4.523438 1.414062 6.378907 1.300782 1.855469 3.285156 3.117187 5.515625 3.511719l8.398438 1.464843c.488281.085938.984375.128907 1.484375.128907 4.425781-.003907 8.113281-3.386719 8.496094-7.796876.382812-4.410156-2.671876-8.378906-7.027344-9.140624l-8.398438-1.476563c-2.230468-.390625-4.523437.117187-6.375 1.417969-1.855468 1.296875-3.117187 3.28125-3.507812 5.511718zm0 0"/><path d="m474.519531 294.546875c.394531-2.230469-.113281-4.527344-1.414062-6.382813-1.300781-1.855468-3.28125-3.117187-5.515625-3.507812l-8.394532-1.46875c-4.644531-.816406-9.066406 2.285156-9.882812 6.929688-.816406 4.640624 2.289062 9.066406 6.929688 9.882812l8.398437 1.472656c.488281.085938.984375.128906 1.484375.128906 4.140625-.003906 7.679688-2.976562 8.394531-7.054687zm0 0"/><path d="m34.15625 256.027344c0 4.710937 3.820312 8.53125 8.535156 8.53125h8.53125c4.714844 0 8.535156-3.820313 8.535156-8.53125 0-4.714844-3.820312-8.535156-8.535156-8.535156h-8.53125c-4.714844 0-8.535156 3.820312-8.535156 8.535156zm0 0"/><path d="m477.890625 256.027344c0-4.714844-3.820313-8.535156-8.53125-8.535156h-8.535156c-4.710938 0-8.53125 3.820312-8.53125 8.535156 0 4.710937 3.820312 8.53125 8.53125 8.53125h8.535156c4.710937 0 8.53125-3.820313 8.53125-8.53125zm0 0"/><path d="m45.925781 301.601562c.496094 0 .992188-.042968 1.484375-.128906l8.398438-1.472656c4.640625-.816406 7.742187-5.242188 6.925781-9.882812-.8125-4.644532-5.238281-7.746094-9.878906-6.929688l-8.398438 1.46875c-4.382812.738281-7.460937 4.722656-7.078125 9.148438.382813 4.429687 4.101563 7.820312 8.546875 7.796874zm0 0"/><path d="m464.640625 210.578125-8.398437 1.476563c-4.359376.761718-7.410157 4.730468-7.027344 9.140624.378906 4.410157 4.070312 7.792969 8.496094 7.796876.496093 0 .992187-.042969 1.484374-.128907l8.394532-1.464843c3.007812-.527344 5.5-2.621094 6.546875-5.484376 1.042969-2.867187.480469-6.070312-1.476563-8.410156-1.960937-2.339844-5.015625-3.453125-8.019531-2.925781zm0 0"/><path d="m55.558594 337.527344c1-.003906 1.988281-.179688 2.925781-.519532l8.015625-2.925781c2.863281-1.054687 4.945312-3.550781 5.464844-6.558593.523437-3.003907-.601563-6.058594-2.941406-8.011719-2.34375-1.953125-5.550782-2.507813-8.414063-1.457031l-8.011719 2.917968c-3.894531 1.414063-6.210937 5.425782-5.492187 9.507813.722656 4.082031 4.273437 7.054687 8.417969 7.046875zm0 0"/><path d="m453.5625 175.042969-8.011719 2.929687c-2.9375.988282-5.109375 3.496094-5.667969 6.542969-.558593 3.046875.578126 6.160156 2.96875 8.132813 2.394532 1.96875 5.667969 2.484374 8.550782 1.347656l8.015625-2.917969c2.863281-1.046875 4.953125-3.539063 5.476562-6.542969.527344-3.003906-.585937-6.058594-2.925781-8.015625-2.335938-1.957031-5.542969-2.519531-8.40625-1.476562zm0 0"/><path d="m71.285156 371.226562c1.5 0 2.96875-.394531 4.269532-1.144531l7.386718-4.265625c2.664063-1.515625 4.308594-4.335937 4.316406-7.398437.007813-3.0625-1.628906-5.894531-4.28125-7.417969-2.65625-1.527344-5.925781-1.511719-8.566406.035156l-7.390625 4.269532c-3.34375 1.929687-4.976562 5.867187-3.976562 9.597656 1 3.730468 4.382812 6.324218 8.242187 6.324218zm0 0"/><path d="m436.503906 141.96875-7.390625 4.265625c-2.660156 1.515625-4.308593 4.339844-4.3125 7.402344-.007812 3.0625 1.625 5.890625 4.28125 7.417969 2.65625 1.523437 5.925781 1.511718 8.566407-.039063l7.390624-4.265625c2.660157-1.515625 4.308594-4.339844 4.3125-7.398438.007813-3.0625-1.625-5.894531-4.28125-7.421874-2.65625-1.523438-5.925781-1.507813-8.566406.039062zm0 0"/><path d="m92.609375 401.679688c2.003906.003906 3.941406-.699219 5.472656-1.988282l6.542969-5.484375c3.613281-3.027343 4.085938-8.410156 1.058594-12.023437-3.027344-3.613282-8.410156-4.085938-12.023438-1.058594l-6.542968 5.488281c-2.75 2.304688-3.761719 6.085938-2.53125 9.457031 1.226562 3.375 4.4375 5.617188 8.023437 5.609376zm0 0"/><path d="m412.917969 132.914062c2 .003907 3.9375-.699218 5.46875-1.988281l6.546875-5.484375c2.335937-1.960937 3.449218-5.015625 2.921875-8.019531-.527344-3.003906-2.617188-5.496094-5.480469-6.539063-2.867188-1.046874-6.070312-.484374-8.40625 1.476563l-6.546875 5.488281c-2.75 2.304688-3.761719 6.085938-2.53125 9.457032 1.230469 3.371093 4.4375 5.613281 8.027344 5.609374zm0 0"/><path d="m145.089844 448.171875c1.960937 1.128906 4.292968 1.433594 6.476562.847656 2.1875-.585937 4.050782-2.019531 5.179688-3.980469l4.269531-7.390624c2.316406-4.078126.910156-9.261719-3.152344-11.605469-4.0625-2.347657-9.257812-.972657-11.628906 3.074219l-4.265625 7.390624c-1.136719 1.957032-1.441406 4.289063-.859375 6.476563.585937 2.191406 2.019531 4.054687 3.980469 5.1875zm0 0"/><path d="m358.425781 87.203125c3.050781.003906 5.871094-1.625 7.398438-4.265625l4.265625-7.390625c1.546875-2.640625 1.5625-5.910156.039062-8.566406-1.527344-2.65625-4.359375-4.289063-7.417968-4.285157-3.0625.007813-5.886719 1.65625-7.402344 4.316407l-4.265625 7.390625c-1.523438 2.640625-1.523438 5.890625-.003907 8.53125 1.523438 2.636718 4.339844 4.265625 7.386719 4.269531zm0 0"/><path d="m188.910156 440.457031c-2.128906-.773437-4.480468-.667969-6.53125.292969-2.054687.957031-3.640625 2.695312-4.410156 4.828125l-2.925781 8.011719c-1.617188 4.425781.664062 9.328125 5.089843 10.945312 4.429688 1.613282 9.328126-.664062 10.945313-5.089844l2.917969-8.015624c.785156-2.128907.691406-4.484376-.261719-6.542969-.957031-2.058594-2.691406-3.652344-4.824219-4.429688zm0 0"/><path d="m326.066406 72.105469c3.582032 0 6.785156-2.238281 8.011719-5.605469l2.925781-8.011719c1.617188-4.429687-.660156-9.328125-5.089844-10.945312-4.425781-1.617188-9.324218.664062-10.941406 5.089843l-2.917968 8.015626c-.957032 2.613281-.574219 5.53125 1.019531 7.816406 1.597656 2.28125 4.207031 3.640625 6.992187 3.640625zm0 0"/><path d="m212.050781 456.242188-1.476562 8.398437c-.390625 2.230469.121093 4.523437 1.417969 6.375 1.300781 1.855469 3.285156 3.113281 5.511718 3.507813.492188.082031.988282.125 1.484375.125 4.144531 0 7.691407-2.972657 8.40625-7.054688l1.46875-8.398438c.527344-3.003906-.585937-6.058593-2.925781-8.015624-2.335938-1.960938-5.539062-2.523438-8.402344-1.476563-2.867187 1.042969-4.957031 3.539063-5.484375 6.539063zm0 0"/><path d="m291.601562 62.867188c4.136719-.003907 7.679688-2.980469 8.394532-7.058594l1.476562-8.398438c.527344-3.003906-.585937-6.0625-2.925781-8.019531-2.339844-1.960937-5.542969-2.523437-8.410156-1.476563-2.867188 1.046876-4.957031 3.539063-5.484375 6.546876l-1.464844 8.394531c-.394531 2.230469.113281 4.527343 1.414062 6.382812 1.296876 1.855469 3.28125 3.117188 5.511719 3.507813.492188.078125.988281.117187 1.488281.121094zm0 0"/><path d="m332.824219 273.09375c0-4.714844-3.820313-8.535156-8.53125-8.535156h-46.082031l21.949218-19.832032c1.808594-1.644531 3.703125-3.277343 5.640625-4.929687 12.03125-10.359375 27.023438-23.253906 27.023438-43.503906 0-23.5625-19.101563-42.667969-42.667969-42.667969-23.5625 0-42.664062 19.105469-42.664062 42.667969 0 4.710937 3.820312 8.53125 8.53125 8.53125 4.714843 0 8.535156-3.820313 8.535156-8.53125-.023438-6.796875 2.683594-13.316407 7.507812-18.097657 10.117188-9.695312 26.074219-9.695312 36.191406 0 4.824219 4.78125 7.523438 11.304688 7.5 18.097657 0 12.414062-10.238281 21.230469-21.101562 30.558593-2.039062 1.75-4.046875 3.480469-5.976562 5.203126l-38.398438 34.714843c-2.617188 2.371094-3.5 6.105469-2.230469 9.398438 1.273438 3.292969 4.445313 5.464843 7.972657 5.457031h68.269531c4.710937 0 8.53125-3.820312 8.53125-8.53125zm0 0"/><path d="m221.890625 281.625c4.714844 0 8.535156-3.820312 8.535156-8.53125 0-4.714844-3.820312-8.535156-8.535156-8.535156v-102.398438c0-3.453125-2.078125-6.5625-5.269531-7.882812-3.1875-1.320313-6.855469-.589844-9.296875 1.847656l-17.066407 17.066406c-3.234374 3.351563-3.1875 8.671875.105469 11.964844 3.289063 3.289062 8.613281 3.335938 11.960938.101562l2.5-2.5v81.800782h-8.53125c-4.714844 0-8.535157 3.820312-8.535157 8.535156 0 4.710938 3.820313 8.53125 8.535157 8.53125zm0 0"/><path d="m196.292969 307.226562c0-4.714843-3.824219-8.535156-8.535157-8.535156-4.714843 0-8.535156 3.820313-8.535156 8.535156v17.066407h-17.066406v-17.066407c0-4.714843-3.820312-8.535156-8.53125-8.535156-4.714844 0-8.535156 3.820313-8.535156 8.535156v51.199219c0 4.714844 3.820312 8.535157 8.535156 8.535157 4.710938 0 8.53125-3.820313 8.53125-8.535157v-17.066406h17.066406v17.066406c0 4.714844 3.820313 8.535157 8.535156 8.535157 4.710938 0 8.535157-3.820313 8.535157-8.535157zm0 0"/><path d="m256.023438 349.894531v-34.136719c0-9.425781-7.640626-17.066406-17.066407-17.066406h-17.066406c-9.425781 0-17.066406 7.640625-17.066406 17.066406v34.136719c0 9.421875 7.640625 17.066407 17.066406 17.066407h17.066406c9.425781 0 17.066407-7.644532 17.066407-17.066407zm-34.132813-34.136719h17.066406v34.136719h-17.066406zm0 0"/><path d="m315.757812 349.894531v-42.667969c0-4.714843-3.820312-8.535156-8.535156-8.535156-4.710937 0-8.53125 3.820313-8.53125 8.535156v42.667969h-17.066406v-42.667969c0-4.714843-3.820312-8.535156-8.535156-8.535156-4.710938 0-8.53125 3.820313-8.53125 8.535156v42.667969c0 9.421875 7.640625 17.066407 17.066406 17.066407h17.066406c9.425782 0 17.066406-7.644532 17.066406-17.066407zm0 0"/><path d="m375.492188 324.292969c0-14.140625-11.460938-25.601563-25.601563-25.601563h-17.066406c-4.710938 0-8.53125 3.820313-8.53125 8.535156v51.199219c0 4.714844 3.820312 8.535157 8.53125 8.535157 4.714843 0 8.535156-3.820313 8.535156-8.535157v-8.53125h5l14.566406 14.566407c3.347657 3.230468 8.667969 3.1875 11.960938-.105469s3.339843-8.613281.105469-11.960938l-7.75-7.75c6.429687-4.792969 10.226562-12.332031 10.25-20.351562zm-34.132813-8.535157h8.53125c4.714844 0 8.535156 3.820313 8.535156 8.535157 0 4.710937-3.820312 8.53125-8.535156 8.53125h-8.53125zm0 0"/></svg>