<svg id="airport" enable-background="new 0 0 300 300" height="512" viewBox="0 0 300 300" width="512"
    xmlns="http://www.w3.org/2000/svg">
    <linearGradient id="gradient" x2="1" y2="1">
        <stop offset="50%" stop-color="#fe5c24" />
        <stop offset="75%" stop-color="#ff8b23" />
    </linearGradient>
    <g fill="url(#gradient)">
        <path
            d="m173.171 192.828c.767.767 1.79 1.172 2.83 1.172.554 0 1.113-.115 1.641-.353l80-36c1.072-.482 1.878-1.412 2.203-2.542s.136-2.346-.516-3.324c-5.747-8.62-16.536-12.104-26.236-8.462l-17.384 6.519-34.84-7.742c-1.734-.386-3.519.42-4.374 1.979-.856 1.559-.58 3.496.678 4.753l12.377 12.378-14.658 8.794h-14.892c-1.618 0-3.076.975-3.695 2.47-.619 1.494-.277 3.215.867 4.358zm2.829-14.828c.725 0 1.437-.197 2.058-.57l20-12c1.056-.634 1.761-1.719 1.912-2.941.15-1.222-.271-2.445-1.142-3.316l-6.287-6.287 22.591 5.02c.756.17 1.546.114 2.272-.159l18.496-6.936c4.608-1.729 9.599-.944 13.367 1.834l-72.392 32.576-7.219-7.22h6.344z" />
        <path
            d="m268 226h-144v-84h9.255c1.812 0 3.397-1.218 3.864-2.968l2.758-10.324c.343.096.698.162 1.067.162.169 0 .342-.011.514-.032 1.381-.178 2.769-.386 4.124-.618 2.177-.374 3.639-2.442 3.266-4.619-.374-2.178-2.443-3.641-4.619-3.266-.724.124-1.466.222-2.202.33l8.986-33.634c.321-1.2.065-2.482-.692-3.469-.757-.985-1.929-1.563-3.172-1.563h-11.149v-19.999c0-2.209-1.791-4-4-4s-4 1.791-4 4v20h-60c-1.243 0-2.416.578-3.172 1.563-.757.986-1.013 2.269-.692 3.469l13.893 52c.467 1.75 2.053 2.968 3.864 2.968h10.107v84h-60c-2.209 0-4 1.791-4 4v40c0 2.209 1.791 4 4 4h236c2.209 0 4-1.791 4-4v-40c0-2.209-1.791-4-4-4zm-190.516-120h60.18l-2.137 8h-55.906zm64.455-16-2.137 8h-64.456l-2.137-8zm-60.18 32h51.63l-3.206 12h-45.218zm18.241 20h16v84h-16zm164 124h-228v-32h228z" />
        <path d="m48 254h204c2.209 0 4-1.791 4-4s-1.791-4-4-4h-204c-2.209 0-4 1.791-4 4s1.791 4 4 4z" />
        <path
            d="m160.371 124.262c.44 0 .889-.073 1.328-.228 1.297-.457 2.61-.951 3.902-1.469 2.05-.821 3.047-3.149 2.225-5.2-.821-2.051-3.148-3.048-5.201-2.226-1.187.476-2.392.929-3.583 1.348-2.084.733-3.178 3.018-2.445 5.102.58 1.644 2.124 2.673 3.774 2.673z" />
        <path
            d="m178.391 115.673c.715 0 1.438-.192 2.092-.594 1.187-.73 2.365-1.49 3.502-2.259 1.831-1.237 2.312-3.724 1.074-5.554-1.237-1.832-3.724-2.311-5.554-1.075-1.043.705-2.125 1.402-3.215 2.073-1.881 1.158-2.468 3.622-1.311 5.503.757 1.229 2.069 1.906 3.412 1.906z" />
        <path
            d="m205.685 78.698c-.654 1.078-1.346 2.165-2.056 3.229-1.226 1.838-.73 4.321 1.108 5.547.682.455 1.453.673 2.216.673 1.292 0 2.561-.625 3.332-1.78.773-1.158 1.527-2.343 2.24-3.52 1.146-1.889.543-4.349-1.345-5.494-1.89-1.148-4.35-.543-5.495 1.345z" />
        <path
            d="m194.083 93.868c-.876.92-1.783 1.832-2.693 2.708-1.591 1.532-1.639 4.064-.107 5.656.785.815 1.833 1.226 2.882 1.226.998 0 1.998-.371 2.774-1.118.994-.957 1.982-1.951 2.938-2.956 1.523-1.6 1.461-4.132-.139-5.655-1.6-1.521-4.132-1.461-5.655.139z" />
        <path
            d="m200.736 66h36c7.72 0 14-6.28 14-14 0-7.618-6.116-13.835-13.697-13.997-3.121-7.214-10.215-12.003-18.303-12.003s-15.182 4.789-18.303 12.003c-7.581.162-13.697 6.379-13.697 13.997 0 7.72 6.28 14 14 14zm0-20c.422 0 .891.069 1.475.218 1.04.264 2.143.101 3.061-.458.917-.557 1.573-1.459 1.818-2.504 1.28-5.45 6.069-9.256 11.646-9.256s10.366 3.806 11.646 9.256c.246 1.045.901 1.947 1.819 2.505.917.557 2.022.72 3.061.457.583-.148 1.052-.218 1.474-.218 3.309 0 6 2.691 6 6s-2.691 6-6 6h-36c-3.309 0-6-2.691-6-6s2.691-6 6-6z" />
        <path d="m56 50c2.209 0 4-1.791 4-4v-12c0-2.209-1.791-4-4-4s-4 1.791-4 4v12c0 2.209 1.791 4 4 4z" />
        <path d="m60 74v-12c0-2.209-1.791-4-4-4s-4 1.791-4 4v12c0 2.209 1.791 4 4 4s4-1.791 4-4z" />
        <path d="m36 58h12c2.209 0 4-1.791 4-4s-1.791-4-4-4h-12c-2.209 0-4 1.791-4 4s1.791 4 4 4z" />
        <path d="m64 58h12c2.209 0 4-1.791 4-4s-1.791-4-4-4h-12c-2.209 0-4 1.791-4 4s1.791 4 4 4z" />
        <path
            d="m36.296 182c0 7.963 6.478 14.44 14.44 14.44s14.44-6.478 14.44-14.44-6.478-14.44-14.44-14.44-14.44 6.477-14.44 14.44zm20.88 0c0 3.551-2.889 6.44-6.44 6.44s-6.44-2.89-6.44-6.44 2.889-6.44 6.44-6.44 6.44 2.889 6.44 6.44z" />
    </g>
</svg>