<?xml version="1.0"?>
<svg xmlns="http://www.w3.org/2000/svg" id="Outline" viewBox="0 0 512 512" width="512" height="512"><path d="M456,224H398.624A23.992,23.992,0,0,0,376,192H312a23.992,23.992,0,0,0-22.624,32H272V152a40.045,40.045,0,0,0-40-40H216V56a24.041,24.041,0,0,0-17.034-22.966A24.042,24.042,0,0,0,176,16H112A24.042,24.042,0,0,0,89.034,33.034,24.041,24.041,0,0,0,72,56v56H56a40.045,40.045,0,0,0-40,40V424a40.015,40.015,0,0,0,20.063,34.655A24,24,0,1,0,78.624,464H209.376a24,24,0,0,0,34.629,28.784L244,492.77A23.988,23.988,0,0,0,278.624,464H417.376a24,24,0,1,0,45.055-.524A40.059,40.059,0,0,0,496,424V264A40.045,40.045,0,0,0,456,224Zm-48.065,64a8,8,0,1,1-8.065,8A8.042,8.042,0,0,1,407.935,288ZM432,384v16H384V384ZM312,208h64a8,8,0,0,1,0,16H312a8,8,0,0,1,0-16ZM112,32h64a8,8,0,0,1,0,16H112a8,8,0,0,1,0-16ZM88,56a7.975,7.975,0,0,1,2.347-5.655A24.03,24.03,0,0,0,112,64h64a24.03,24.03,0,0,0,21.653-13.655A7.975,7.975,0,0,1,200,56v56H88ZM56,480a8,8,0,1,1,8-8A8.009,8.009,0,0,1,56,480ZM72,256a24.028,24.028,0,0,0-24,24V408a24.028,24.028,0,0,0,24,24H200.805a39.841,39.841,0,0,0,7.217,16H56a24.028,24.028,0,0,1-24-24V152a24.028,24.028,0,0,1,24-24H232a24.028,24.028,0,0,1,24,24v72H240c-.466,0-.926.019-1.388.035A23.883,23.883,0,0,0,240,216V168a24.028,24.028,0,0,0-24-24H72a24.028,24.028,0,0,0-24,24v48a24.028,24.028,0,0,0,24,24H208.022a39.841,39.841,0,0,0-7.217,16Zm128,16V416H72a8.009,8.009,0,0,1-8-8V280a8.009,8.009,0,0,1,8-8ZM72,224a8.009,8.009,0,0,1-8-8V168a8.009,8.009,0,0,1,8-8h64v16a8,8,0,0,0,16,0V160h64a8.009,8.009,0,0,1,8,8v48a8.009,8.009,0,0,1-8,8ZM233.335,479.878A8.181,8.181,0,0,1,232,480a8,8,0,0,1,0-16,8.181,8.181,0,0,1,1.335.122,23.912,23.912,0,0,0,0,15.756ZM256,480a8,8,0,1,1,8-8A8.009,8.009,0,0,1,256,480Zm16-32H240a24.027,24.027,0,0,1-24-24V264a24.027,24.027,0,0,1,24-24h32v56h-8a8,8,0,0,0-8,8v48a8,8,0,0,0,8,8h8Zm0-104V312h16v32ZM400,448H288V360h8a8,8,0,0,0,8-8V304a8,8,0,0,0-8-8h-8V240H400v33.347a23.972,23.972,0,0,0,0,45.306V368H376a8,8,0,0,0-8,8v32a8,8,0,0,0,8,8h24Zm40,32a8,8,0,1,1,8-8A8.009,8.009,0,0,1,440,480Zm40-56a24.027,24.027,0,0,1-24,24H416V416h24a8,8,0,0,0,8-8V376a8,8,0,0,0-8-8H416V318.609a23.974,23.974,0,0,0,0-45.218V240h40a24.027,24.027,0,0,1,24,24Z"/><path d="M128,304h32a8,8,0,0,0,0-16H128a8,8,0,0,0,0,16Z"/></svg>
