<?xml version="1.0" encoding="iso-8859-1"?>
<!-- Generator: Adobe Illustrator 19.0.0, SVG Export Plug-In . SVG Version: 6.00 Build 0)  -->
<svg version="1.1" id="Capa_1" xmlns="http://www.w3.org/2000/svg" xmlns:xlink="http://www.w3.org/1999/xlink" x="0px" y="0px"
	 viewBox="0 0 464.118 464.118" style="enable-background:new 0 0 464.118 464.118;" xml:space="preserve">
<g>
	<g>
		<path d="M391.496,176.394c18.416,0,36.776-7.008,50.792-21.024c26.776-26.776,21.68-106.328,21.016-115.312
			c-0.288-3.952-3.456-7.096-7.408-7.384c-8.976-0.656-88.552-5.736-115.336,21.032c-13.584,13.576-21.064,31.544-21.064,50.744
			c0,8.296,1.472,15.856,4.152,23.856h-138.8c-13.392,0-25.816,6.736-33.24,17.872l-54.416,81.648
			c-0.488,0.736-0.8,1.56-1.024,2.392C40.568,247.218,0,299.13,0,360.21c-0.008,22.016,17.92,40.096,39.944,40.096h13.592
			c9.192,16,28.664,31.944,50.312,31.944s41.112-15.944,50.312-31.944h123.032c9.2,16,28.656,31.944,50.312,31.944
			s41.104-15.944,50.304-31.944H391.4c22.032,0,40.248-18.208,40.248-40.232V264.25c0-22.024-18.216-39.944-40.248-39.944h-23.752
			v-52.08C375.648,174.946,383.384,176.394,391.496,176.394z M239.648,144.306h87.848c1.52,0,2.992,0.264,4.432,0.536
			c1.04,1.52,2.144,3.048,3.304,4.496l-17.272,17.288c-3.128,3.128-3.128,8.2,0,11.32c1.56,1.56,3.608,2.352,5.656,2.352
			c2.048,0,4.096-0.776,5.656-2.344l17.272-17.264c1.448,1.16,3.032,2.24,4.552,3.272c0.28,1.448,0.552,2.936,0.552,4.464v55.88
			h-112V144.306z M164.92,155.058c4.448-6.68,11.896-10.752,19.928-10.752h38.8v80H135.8h-17L164.92,155.058z M143.648,389.346
			c0,0.008,0,0.008,0,0.016c-8,15.912-21.856,26.6-38.696,26.6c-16.848,0-32.512-10.696-38.152-26.616
			c-1.544-4.352-2.6-8.832-2.6-13.296c0-22.008,17.776-39.912,39.784-39.912s40.96,17.904,40.96,39.912
			C144.944,380.514,143.648,384.986,143.648,389.346z M365.096,389.346c-5.632,15.92-20.744,26.616-37.6,26.616
			c-16.848,0-31.96-10.696-37.6-26.616c-1.536-4.344-2.32-8.824-2.32-13.296c0-22.008,17.904-39.912,39.92-39.912
			s39.928,17.904,39.928,39.912C367.424,380.514,366.64,384.986,365.096,389.346z M391.4,240.306
			c13.208,0,24.248,10.744,24.248,23.944v95.824c0,13.2-11.04,24.232-24.248,24.232h-8.552c0.392,0,0.584-5.448,0.584-8.112
			c0-30.832-25.096-55.984-55.928-55.984c-30.832,0-55.92,25.192-55.92,56.024c0,2.664,0.192,8.08,0.584,8.08H159.184
			c0.392,0,0.584-5.448,0.584-8.112c0-30.832-25.088-55.984-55.928-55.984c-30.84,0-55.928,25.192-55.928,56.024
			c0,2.664,0.192,8.08,0.584,8.08h-8.56c-13.208,0-23.952-10.888-23.952-24.088c0.008-66.056,53.752-119.928,119.816-119.928
			h223.656H391.4z M364.488,153.474c-1.008-2.48-2.232-4.928-3.688-7.128l9.952-10.04h44.616c4.424,0,8-3.576,8-8s-3.576-8-8-8
			h-28.616l32.896-32.8c3.128-3.128,3.128-8.144,0-11.264s-8.08-3.104-11.208,0.024l-32.792,32.92v-28.6c0-4.424-3.576-8-8-8
			s-8,3.576-8,8v44.6l-10.056,9.944c-2.216-1.472-4.648-2.696-7.144-3.704c-4.488-8.152-6.928-17.328-6.928-26.888
			c0-14.92,5.8-28.952,16.36-39.512c13.928-13.92,53.168-17.104,81.024-17.104c5.472,0,10.504,0.128,14.816,0.312
			c1.16,26.264-0.128,79.16-16.792,95.824C412.944,162.01,385.712,165.114,364.488,153.474z"/>
	</g>
</g>
<g>
</g>
<g>
</g>
<g>
</g>
<g>
</g>
<g>
</g>
<g>
</g>
<g>
</g>
<g>
</g>
<g>
</g>
<g>
</g>
<g>
</g>
<g>
</g>
<g>
</g>
<g>
</g>
<g>
</g>
</svg>
