<?xml version="1.0" encoding="iso-8859-1"?>
<!-- Generator: Adobe Illustrator 19.0.0, SVG Export Plug-In . SVG Version: 6.00 Build 0)  -->
<svg version="1.1" id="Capa_1" xmlns="http://www.w3.org/2000/svg" xmlns:xlink="http://www.w3.org/1999/xlink" x="0px" y="0px"
	 viewBox="0 0 512 512" style="enable-background:new 0 0 512 512;" xml:space="preserve">
<g>
	<g>
		<g>
			<path d="M503.467,230.4H486.4V119.467c-0.015-14.132-11.468-25.585-25.6-25.6h-96.148l-13.706-79.654
				C349.598,6,342.489-0.021,334.167,0h-52.225c-4.624-0.007-9.052,1.864-12.269,5.185s-4.947,7.807-4.793,12.428l2.599,76.254
				h-22.956l2.599-76.242c0.157-4.623-1.571-9.112-4.789-12.435c-3.218-3.324-7.648-5.197-12.274-5.19h-52.225
				c-8.308-0.026-15.41,5.975-16.771,14.171l-13.714,79.696H51.2c-14.132,0.015-25.585,11.468-25.6,25.6V230.4H8.533
				c-4.713,0-8.533,3.82-8.533,8.533V281.6c0.009,9.422,7.645,17.057,17.067,17.067H25.6V358.4c0,4.713,3.821,8.533,8.533,8.533
				h34.133c4.713,0,8.533-3.82,8.533-8.533v-30.6l29.133-29.133h6.049L78.621,492.1c-0.814,4.955,0.588,10.017,3.835,13.848
				c3.247,3.83,8.011,6.043,13.032,6.052h118.1c9.217,0.011,16.774-7.304,17.062-16.517l6.799-196.817h37.102l6.799,196.837
				c0.298,9.205,7.853,16.509,17.062,16.496h118.1c5.033-0.009,9.807-2.232,13.054-6.078c3.247-3.846,4.636-8.926,3.8-13.889
				l-33.349-193.367h6.049L435.2,327.8v30.6c0,4.713,3.82,8.533,8.533,8.533h34.133c4.713,0,8.533-3.82,8.533-8.533v-59.733h8.533
				c9.422-0.009,17.057-7.645,17.067-17.067v-42.667C512,234.221,508.18,230.4,503.467,230.4z M401.067,110.933H460.8
				c4.71,0.006,8.527,3.823,8.533,8.533V128h-68.267V110.933z M401.067,162.133v-17.067h68.267V230.4h-81.134l-8.831-51.2H384
				C393.422,179.191,401.057,171.555,401.067,162.133z M334.121,17.063l13.216,76.804h-62.78l-2.615-76.8L334.121,17.063z
				 M281.6,110.933H384l0.006,25.569L384,136.533l0.006,0.031l0.006,25.569H281.6V110.933z M370.882,230.4h-81.554l-1.791-51.2
				h74.513L370.882,230.4z M247.467,110.933h17.067V128h-17.067V110.933z M241.694,174.831c3.656-3.209,5.758-7.833,5.772-12.698
				v-17.067h17.067v17.067c0.014,4.865,2.116,9.489,5.772,12.698l1.944,55.569h-32.499L241.694,174.831z M177.833,17.067
				l52.229-0.037l-2.619,76.837h-62.785L177.833,17.067z M128,110.933h102.4l0.006,25.569l-0.006,0.031l0.006,0.031l0.006,25.569
				H128V110.933z M224.462,179.2l-1.791,51.2h-81.554l8.831-51.2H224.462z M42.667,119.467c0.006-4.71,3.823-8.527,8.533-8.533
				h59.733V128H42.667V119.467z M42.667,145.067h68.267v17.067c0.009,9.422,7.645,17.057,17.067,17.067h4.632l-8.831,51.2H42.667
				V145.067z M62.234,318.234c-1.6,1.6-2.5,3.77-2.5,6.033v25.6H42.667v-51.2H81.8L62.234,318.234z M213.588,494.933H95.45
				l33.849-196.267h34.593c-1.036,1.233-1.695,2.739-1.896,4.338l-1.779,17.442c-0.231,2.251,0.443,4.502,1.872,6.256
				c1.429,1.754,3.497,2.869,5.748,3.098c0.291,0.032,0.583,0.047,0.875,0.046c4.374-0.005,8.035-3.316,8.479-7.667l1.779-17.442
				c0.215-2.177-0.421-4.352-1.773-6.071h43.172L213.588,494.933z M416.513,494.933l-118.104-0.042l-6.778-196.225h43.173
				c-1.353,1.719-1.988,3.894-1.773,6.071l1.779,17.442c0.444,4.351,4.106,7.662,8.479,7.667c0.292,0.001,0.584-0.014,0.875-0.046
				c2.251-0.229,4.319-1.344,5.748-3.098c1.429-1.754,2.103-4.005,1.872-6.256l-1.779-17.442c-0.202-1.598-0.86-3.104-1.896-4.337
				H382.7L416.513,494.933z M469.333,349.867h-17.067v-25.6c-0.001-2.263-0.9-4.433-2.5-6.033L430.2,298.667h39.133V349.867z
				 M477.867,281.6h-460.8v-34.133h477.871l0.009,34.133H477.867z"/>
			<path d="M197.133,42.713c-2.255-0.249-4.515,0.418-6.273,1.851c-1.759,1.433-2.868,3.511-3.081,5.77l-0.867,8.487
				c-0.231,2.251,0.443,4.502,1.872,6.256s3.497,2.869,5.749,3.098c0.291,0.032,0.583,0.047,0.875,0.046
				c4.374-0.003,8.037-3.315,8.479-7.667l0.867-8.487c0.23-2.251-0.444-4.501-1.873-6.255
				C201.452,44.057,199.384,42.942,197.133,42.713z"/>
			<path d="M178.517,225.15c0.291,0.032,0.583,0.047,0.875,0.046c4.374-0.005,8.035-3.316,8.479-7.667l1.779-17.442
				c0.23-2.251-0.443-4.501-1.872-6.256c-1.429-1.754-3.497-2.869-5.748-3.098c-2.255-0.252-4.517,0.414-6.276,1.848
				s-2.868,3.514-3.078,5.773l-1.779,17.442c-0.231,2.251,0.443,4.502,1.872,6.256C174.197,223.806,176.265,224.921,178.517,225.15z
				"/>
			<path d="M166.013,347.704c-2.256-0.258-4.522,0.406-6.282,1.84c-1.761,1.435-2.868,3.519-3.072,5.781l-1.779,17.442
				c-0.23,2.251,0.443,4.502,1.872,6.256c1.429,1.754,3.497,2.869,5.748,3.098c0.291,0.032,0.583,0.047,0.875,0.046
				c4.374-0.005,8.035-3.316,8.479-7.667l1.779-17.442c0.231-2.251-0.443-4.502-1.872-6.256S168.264,347.934,166.013,347.704z"/>
			<path d="M160.671,400.029c-2.256-0.256-4.52,0.408-6.28,1.842c-1.76,1.434-2.868,3.517-3.074,5.778l-1.779,17.442
				c-0.231,2.251,0.443,4.502,1.872,6.256c1.429,1.754,3.497,2.869,5.749,3.098c0.291,0.032,0.583,0.047,0.875,0.046
				c4.374-0.005,8.035-3.316,8.479-7.667l1.779-17.442c0.231-2.251-0.443-4.502-1.872-6.256
				C164.99,401.373,162.922,400.259,160.671,400.029z"/>
			<path d="M155.333,452.358c-2.254-0.245-4.512,0.423-6.27,1.855c-1.758,1.432-2.869,3.509-3.084,5.766l-0.867,8.488
				c-0.23,2.251,0.444,4.501,1.873,6.255c1.429,1.754,3.497,2.869,5.748,3.099c0.291,0.032,0.583,0.047,0.875,0.046
				c4.374-0.003,8.037-3.315,8.479-7.667l0.867-8.488c0.23-2.251-0.443-4.502-1.872-6.256S157.585,452.588,155.333,452.358z"/>
			<path d="M308.114,60.554c0.442,4.352,4.105,7.663,8.479,7.667c0.292,0.001,0.584-0.014,0.875-0.046
				c2.251-0.229,4.319-1.344,5.748-3.098c1.429-1.754,2.103-4.005,1.872-6.256l-0.867-8.487c-0.479-4.688-4.667-8.099-9.354-7.621
				c-4.688,0.479-8.099,4.667-7.621,9.354L308.114,60.554z"/>
			<path d="M324.13,217.53c0.444,4.351,4.106,7.662,8.479,7.667c0.292,0.001,0.584-0.014,0.875-0.046
				c2.251-0.229,4.319-1.344,5.749-3.098s2.103-4.005,1.872-6.256l-1.779-17.442c-0.479-4.688-4.667-8.099-9.354-7.621
				c-4.688,0.479-8.099,4.667-7.621,9.354L324.13,217.53z"/>
			<path d="M354.843,434.446c2.251-0.229,4.319-1.344,5.749-3.098c1.429-1.754,2.103-4.005,1.872-6.256l-1.779-17.442
				c-0.205-2.261-1.313-4.344-3.074-5.778s-4.024-2.098-6.281-1.842c-2.251,0.229-4.319,1.344-5.749,3.098s-2.103,4.005-1.872,6.256
				l1.779,17.442c0.444,4.351,4.106,7.662,8.479,7.667C354.26,434.493,354.552,434.478,354.843,434.446z"/>
			<path d="M349.501,382.121c2.251-0.229,4.319-1.344,5.749-3.098c1.429-1.754,2.103-4.005,1.872-6.256l-1.779-17.442
				c-0.204-2.262-1.311-4.346-3.072-5.781c-1.761-1.435-4.026-2.098-6.282-1.84c-2.251,0.229-4.319,1.344-5.748,3.098
				c-1.429,1.754-2.103,4.005-1.872,6.256l1.779,17.442c0.444,4.351,4.106,7.662,8.479,7.667
				C348.918,382.168,349.211,382.153,349.501,382.121z"/>
			<path d="M366.022,459.979c-0.479-4.688-4.667-8.099-9.354-7.621c-4.688,0.479-8.1,4.667-7.621,9.354l0.867,8.488
				c0.442,4.352,4.105,7.663,8.479,7.667c0.292,0.001,0.584-0.014,0.875-0.046c2.251-0.23,4.319-1.344,5.748-3.099
				c1.429-1.754,2.103-4.004,1.873-6.255L366.022,459.979z"/>
		</g>
	</g>
</g>
<g>
</g>
<g>
</g>
<g>
</g>
<g>
</g>
<g>
</g>
<g>
</g>
<g>
</g>
<g>
</g>
<g>
</g>
<g>
</g>
<g>
</g>
<g>
</g>
<g>
</g>
<g>
</g>
<g>
</g>
</svg>
