<svg id="health-protection" enable-background="new 0 0 300 300" viewBox="0 0 300 300" xmlns="http://www.w3.org/2000/svg"><g><path d="m218.382 48c2.209 0 4-1.791 4-4v-8c0-2.209-1.791-4-4-4s-4 1.791-4 4v8c0 2.209 1.791 4 4 4z"/><path d="m218.382 56c-2.209 0-4 1.791-4 4v8c0 2.209 1.791 4 4 4s4-1.791 4-4v-8c0-2.209-1.791-4-4-4z"/><path d="m210.382 48h-8c-2.209 0-4 1.791-4 4s1.791 4 4 4h8c2.209 0 4-1.791 4-4s-1.791-4-4-4z"/><path d="m226.382 56h8c2.209 0 4-1.791 4-4s-1.791-4-4-4h-8c-2.209 0-4 1.791-4 4s1.791 4 4 4z"/><path d="m257.342 67.671c-2.362 0-4.276 1.915-4.276 4.277s1.915 4.276 4.276 4.276 4.276-1.915 4.276-4.276-1.915-4.277-4.276-4.277z"/><path d="m234.97 150.006c-6.805 0-12.34 5.535-12.34 12.338 0 6.805 5.535 12.34 12.34 12.34 6.803 0 12.338-5.535 12.338-12.34 0-6.803-5.535-12.338-12.338-12.338zm0 16.678c-2.393 0-4.34-1.947-4.34-4.34s1.947-4.338 4.34-4.338 4.338 1.945 4.338 4.338-1.946 4.34-4.338 4.34z"/><path d="m203.353 76.119-80-20c-.637-.16-1.305-.16-1.941 0l-80 20c-1.779.445-3.029 2.045-3.029 3.881v92c0 53.854 78.854 93.898 82.211 95.578.562.281 1.176.422 1.789.422s1.227-.141 1.789-.422c3.357-1.68 82.211-41.725 82.211-95.578v-92c-.001-1.836-1.251-3.436-3.03-3.881zm-68.971 67.881h20v16h-20c-2.209 0-4 1.791-4 4v20h-16v-20c0-2.209-1.791-4-4-4h-20v-16h20c2.209 0 4-1.791 4-4v-20h16v20c0 2.209 1.791 4 4 4zm-88 28v-88.877l72-18v46.877h-8c-2.209 0-4 1.791-4 4v20h-20c-2.209 0-4 1.791-4 4v24c0 2.209 1.791 4 4 4h20v20c0 2.209 1.791 4 4 4h8v65.274c-18.012-10.218-72-44.268-72-85.274zm152 0c0 40.963-53.986 75.041-72 85.27v-65.27h8c2.209 0 4-1.791 4-4v-20h20c2.209 0 4-1.791 4-4v-24c0-2.209-1.791-4-4-4h-20v-20c0-2.209-1.791-4-4-4h-8v-46.877l72 18z"/></g><g/><g/><g/><g/><g/><g/><g/><g/><g/><g/><g/><g/><g/><g/><g/></svg>