<svg height="512" viewBox="0 0 128 128" width="512" xmlns="http://www.w3.org/2000/svg"><g><path d="m78.479 29.68a12.251 12.251 0 0 1 -5.659-10.31v-5.12h.58a1.751 1.751 0 0 0 1.75-1.75v-6a1.751 1.751 0 0 0 -1.75-1.75h-18.8a1.751 1.751 0 0 0 -1.75 1.75v6a1.751 1.751 0 0 0 1.75 1.75h.584v5.12a12.253 12.253 0 0 1 -5.662 10.312 15.672 15.672 0 0 0 -7.178 13.2v72.618a7.759 7.759 0 0 0 7.75 7.75h5.39a6.809 6.809 0 0 0 5.388-2.664 3.282 3.282 0 0 1 2.622-1.3h1.02a3.279 3.279 0 0 1 2.617 1.289 6.812 6.812 0 0 0 5.393 2.671h5.39a7.759 7.759 0 0 0 7.75-7.75v-72.616a15.674 15.674 0 0 0 -7.185-13.2zm-22.133-21.43h15.308v2.5h-15.308zm-4.926 24.37a15.736 15.736 0 0 0 7.26-13.25v-5.12h10.64v5.12a15.733 15.733 0 0 0 7.258 13.248 12.189 12.189 0 0 1 5.582 10.262v7.453h-36.32v-7.453a12.185 12.185 0 0 1 5.58-10.26zm30.73 21.213v24.5h-36.308v-24.5zm-4.24 65.917h-5.39a3.3 3.3 0 0 1 -2.612-1.3 6.759 6.759 0 0 0 -5.4-2.664h-1.018a6.763 6.763 0 0 0 -5.4 2.671 3.292 3.292 0 0 1 -2.607 1.289h-5.393a4.255 4.255 0 0 1 -4.25-4.25v-33.663h36.32v33.667a4.255 4.255 0 0 1 -4.25 4.25z"/><path d="m64 74.583a6.869 6.869 0 0 0 6.862-6.862c0-3.336-4.643-8.558-5.573-9.572a1.805 1.805 0 0 0 -2.577 0c-.931 1.014-5.574 6.236-5.574 9.572a6.869 6.869 0 0 0 6.862 6.862zm0-12.57c1.79 2.2 3.362 4.675 3.362 5.708a3.362 3.362 0 1 1 -6.724 0c-.004-1.033 1.569-3.505 3.362-5.708z"/></g></svg>